<mxfile host="app.diagrams.net" modified="2023-10-13T09:18:46.095Z" agent="Mozilla/5.0 (Windows NT 10.0; Win64; x64) AppleWebKit/537.36 (KHTML, like Gecko) Chrome/118.0.0.0 Safari/537.36" etag="JpB6GzdnYX7qLLiW80RS" version="22.0.4" type="github">
  <diagram name="PÃ¡gina-1" id="mOBxEqPEDJ1orQZbKKJj">
    <mxGraphModel dx="970" dy="954" grid="1" gridSize="10" guides="1" tooltips="1" connect="1" arrows="1" fold="1" page="1" pageScale="1" pageWidth="827" pageHeight="1169" math="0" shadow="0">
      <root>
        <mxCell id="0" />
        <mxCell id="1" parent="0" />
        <mxCell id="Puu5PbW_sM_krx-UFkcO-1" value="" style="fontColor=#0066CC;verticalAlign=top;verticalLabelPosition=bottom;labelPosition=center;align=center;html=1;outlineConnect=0;fillColor=#CCCCCC;strokeColor=#6881B3;gradientColor=none;gradientDirection=north;strokeWidth=2;shape=mxgraph.networks.pc;" vertex="1" parent="1">
          <mxGeometry x="282.8" y="400" width="100" height="70" as="geometry" />
        </mxCell>
        <mxCell id="Puu5PbW_sM_krx-UFkcO-2" value="" style="image;aspect=fixed;perimeter=ellipsePerimeter;html=1;align=center;shadow=0;dashed=0;spacingTop=3;image=img/lib/active_directory/windows_server.svg;" vertex="1" parent="1">
          <mxGeometry x="300" y="177.8" width="75.6" height="92.2" as="geometry" />
        </mxCell>
        <mxCell id="Puu5PbW_sM_krx-UFkcO-3" value="" style="image;html=1;image=img/lib/clip_art/networking/Firewall-page1_128x128.png" vertex="1" parent="1">
          <mxGeometry x="480" y="183.9" width="80" height="80" as="geometry" />
        </mxCell>
        <mxCell id="Puu5PbW_sM_krx-UFkcO-4" value="" style="endArrow=none;html=1;rounded=0;" edge="1" parent="1">
          <mxGeometry width="50" height="50" relative="1" as="geometry">
            <mxPoint x="340" y="390" as="sourcePoint" />
            <mxPoint x="340" y="280" as="targetPoint" />
          </mxGeometry>
        </mxCell>
        <mxCell id="Puu5PbW_sM_krx-UFkcO-5" value="" style="endArrow=none;html=1;rounded=0;entryX=0.5;entryY=1;entryDx=0;entryDy=0;" edge="1" parent="1" target="Puu5PbW_sM_krx-UFkcO-3">
          <mxGeometry width="50" height="50" relative="1" as="geometry">
            <mxPoint x="400" y="420" as="sourcePoint" />
            <mxPoint x="400" y="330" as="targetPoint" />
          </mxGeometry>
        </mxCell>
        <mxCell id="Puu5PbW_sM_krx-UFkcO-6" value="" style="endArrow=none;html=1;rounded=0;" edge="1" parent="1">
          <mxGeometry width="50" height="50" relative="1" as="geometry">
            <mxPoint x="380" y="240" as="sourcePoint" />
            <mxPoint x="470" y="240" as="targetPoint" />
          </mxGeometry>
        </mxCell>
        <mxCell id="Puu5PbW_sM_krx-UFkcO-7" value="IP:" style="text;html=1;align=center;verticalAlign=middle;resizable=0;points=[];autosize=1;strokeColor=none;fillColor=none;" vertex="1" parent="1">
          <mxGeometry x="280" y="478" width="40" height="30" as="geometry" />
        </mxCell>
        <mxCell id="Puu5PbW_sM_krx-UFkcO-8" value="Windows 10 PRO&lt;br&gt;" style="text;html=1;align=center;verticalAlign=middle;resizable=0;points=[];autosize=1;strokeColor=none;fillColor=none;" vertex="1" parent="1">
          <mxGeometry x="272.8" y="508" width="120" height="30" as="geometry" />
        </mxCell>
        <mxCell id="Puu5PbW_sM_krx-UFkcO-9" value="Windows Server 2019" style="text;html=1;align=center;verticalAlign=middle;resizable=0;points=[];autosize=1;strokeColor=none;fillColor=none;" vertex="1" parent="1">
          <mxGeometry x="267.8" y="140" width="140" height="30" as="geometry" />
        </mxCell>
        <mxCell id="Puu5PbW_sM_krx-UFkcO-10" value="PfSense" style="text;html=1;align=center;verticalAlign=middle;resizable=0;points=[];autosize=1;strokeColor=none;fillColor=none;" vertex="1" parent="1">
          <mxGeometry x="520" y="260" width="70" height="30" as="geometry" />
        </mxCell>
        <mxCell id="Puu5PbW_sM_krx-UFkcO-11" value="" style="endArrow=none;html=1;rounded=0;" edge="1" parent="1">
          <mxGeometry width="50" height="50" relative="1" as="geometry">
            <mxPoint x="550" y="183.9" as="sourcePoint" />
            <mxPoint x="600" y="133.9" as="targetPoint" />
          </mxGeometry>
        </mxCell>
        <mxCell id="Puu5PbW_sM_krx-UFkcO-12" value="" style="image;aspect=fixed;perimeter=ellipsePerimeter;html=1;align=center;shadow=0;dashed=0;spacingTop=3;image=img/lib/active_directory/internet_cloud.svg;" vertex="1" parent="1">
          <mxGeometry x="560" y="70.7" width="110" height="69.3" as="geometry" />
        </mxCell>
        <mxCell id="Puu5PbW_sM_krx-UFkcO-13" value="Internet" style="text;html=1;align=center;verticalAlign=middle;resizable=0;points=[];autosize=1;strokeColor=none;fillColor=none;" vertex="1" parent="1">
          <mxGeometry x="620" y="48" width="60" height="30" as="geometry" />
        </mxCell>
        <mxCell id="Puu5PbW_sM_krx-UFkcO-14" value="IP:" style="text;html=1;align=center;verticalAlign=middle;resizable=0;points=[];autosize=1;strokeColor=none;fillColor=none;" vertex="1" parent="1">
          <mxGeometry x="272.8" y="110" width="40" height="30" as="geometry" />
        </mxCell>
      </root>
    </mxGraphModel>
  </diagram>
</mxfile>
